<?xml version="1.0" standalone="no"?>
<!DOCTYPE svg PUBLIC "-//W3C//DTD SVG 20010904//EN"
 "http://www.w3.org/TR/2001/REC-SVG-20010904/DTD/svg10.dtd">
<svg version="1.0" xmlns="http://www.w3.org/2000/svg"
 width="736.000000pt" height="368.000000pt" viewBox="0 0 736.000000 368.000000"
 preserveAspectRatio="xMidYMid meet">

<g transform="translate(0.000000,368.000000) scale(0.100000,-0.100000)"
fill="#000000" stroke="none">
<path d="M725 3540 c-3 -5 5 -15 17 -23 102 -62 145 -92 228 -158 154 -123
308 -299 397 -454 l36 -64 42 68 c155 252 352 445 618 605 15 9 25 21 21 27
-7 13 -117 -48 -214 -119 -162 -119 -290 -254 -417 -438 l-52 -76 -15 30 c-34
66 -174 241 -261 326 -95 93 -198 172 -317 245 -74 45 -74 45 -83 31z"/>
<path d="M655 3449 c-8 -13 -14 -8 67 -58 244 -148 496 -401 638 -640 23 -39
44 -71 45 -71 1 0 21 31 44 69 141 238 389 487 636 640 85 53 81 49 69 61 -13
13 -140 -61 -259 -150 -160 -120 -314 -284 -434 -464 -29 -43 -57 -74 -61 -70
-4 5 -37 50 -71 101 -150 215 -333 392 -539 520 -99 61 -128 74 -135 62z"/>
<path d="M482 3407 l-42 -42 483 -483 482 -482 483 483 482 482 -45 45 -45 45
-438 -438 -437 -437 -435 435 c-239 239 -437 435 -440 435 -3 0 -25 -19 -48
-43z"/>
<path d="M2580 2980 c-36 -4 -53 -7 -38 -8 59 -4 59 -4 56 -345 l-3 -312 -30
-6 c-16 -4 17 -7 75 -7 58 0 94 3 80 7 l-25 7 -2 159 c0 88 -2 240 -2 338 l-1
177 -22 -2 c-13 -1 -52 -4 -88 -8z"/>
<path d="M2352 2954 c-9 -91 -62 -178 -131 -214 l-36 -19 43 -1 42 0 0 -169
c0 -93 4 -181 10 -196 17 -45 107 -69 164 -44 36 17 47 55 43 145 l-3 79 -2
-88 c-2 -79 -5 -91 -27 -112 -29 -30 -49 -31 -75 -5 -19 19 -20 33 -20 205 l0
185 60 0 c47 0 60 3 60 15 0 12 -13 15 -60 15 l-59 0 -4 113 c-1 61 -4 103 -5
91z"/>
<path d="M3160 2744 c-50 -22 -79 -52 -106 -109 -26 -54 -31 -133 -14 -196 13
-47 84 -116 135 -132 l40 -12 -72 -3 -73 -3 1 -112 c0 -91 4 -118 19 -142 73
-117 108 -234 116 -385 10 -190 -21 -334 -100 -465 -36 -59 -36 -61 -36 -172
0 -62 3 -113 8 -113 4 0 73 -1 154 -3 l147 -2 4 435 c4 474 6 494 63 584 30
47 92 94 137 103 16 3 39 21 55 42 45 61 125 141 162 164 19 11 37 24 40 27 3
3 18 11 33 18 15 7 26 16 22 21 -3 6 -40 17 -82 27 -145 32 -258 2 -367 -97
-30 -27 -57 -49 -60 -49 -3 0 -6 27 -6 60 l0 60 -71 0 c-44 0 -68 4 -64 10 3
6 -3 10 -15 10 -57 0 -87 46 -96 149 l-7 71 138 0 138 0 -6 55 c-7 67 -31 112
-77 142 -39 27 -59 30 -38 6 21 -24 38 -88 38 -145 l0 -48 -96 0 -97 0 6 65
c6 64 26 117 49 131 7 4 28 11 48 15 l35 7 -35 0 c-19 1 -51 -6 -70 -14z"/>
<path d="M2837 2740 c13 -6 26 -23 32 -47 12 -43 15 -352 3 -369 -4 -7 -16
-14 -27 -17 -11 -2 25 -5 80 -5 55 0 89 3 75 7 l-25 7 -5 179 c-4 136 -9 185
-20 203 -19 28 -69 52 -107 51 -26 0 -26 -1 -6 -9z"/>
<path d="M2744 2718 l-19 -23 23 19 c21 18 27 26 19 26 -2 0 -12 -10 -23 -22z"/>
<path d="M2715 2679 c-4 -6 -5 -12 -2 -15 2 -3 7 2 10 11 7 17 1 20 -8 4z"/>
<path d="M1706 2551 l-89 -89 32 -17 c45 -23 126 -31 137 -14 6 10 14 209 9
209 0 0 -40 -40 -89 -89z"/>
<path d="M1592 1750 c2 -297 0 -540 -4 -540 -5 0 -7 -70 -6 -155 l2 -155 105
0 106 0 -2 687 c-2 379 -3 691 -3 696 0 4 -45 7 -100 7 l-100 0 2 -540z"/>
</g>
</svg>
