<?xml version="1.0" standalone="no"?>
<!DOCTYPE svg PUBLIC "-//W3C//DTD SVG 20010904//EN"
 "http://www.w3.org/TR/2001/REC-SVG-20010904/DTD/svg10.dtd">
<svg version="1.0" xmlns="http://www.w3.org/2000/svg"
 width="600.000000pt" height="600.000000pt" viewBox="0 0 600.000000 600.000000"
 preserveAspectRatio="xMidYMid meet">

<g transform="translate(0.000000,600.000000) scale(0.100000,-0.100000)"
fill="#000000" stroke="none">
<path d="M2226 4464 c-11 -11 -16 -35 -16 -80 l0 -64 285 0 285 0 0 64 c0 100
12 96 -285 96 -217 0 -256 -2 -269 -16z"/>
<path d="M2210 4240 c0 -6 102 -10 285 -10 183 0 285 4 285 10 0 6 -102 10
-285 10 -183 0 -285 -4 -285 -10z"/>
<path d="M2210 3370 l0 -820 285 0 285 0 0 820 0 820 -285 0 -285 0 0 -820z"/>
<path d="M3447 3604 c-4 -4 -7 -25 -7 -46 l0 -38 176 0 175 0 -3 43 -3 42
-166 3 c-91 1 -168 -1 -172 -4z"/>
<path d="M3522 3463 c48 -2 129 -2 180 0 51 1 12 3 -87 3 -99 0 -141 -2 -93
-3z"/>
<path d="M3447 3433 c-4 -3 -7 -228 -7 -500 l0 -493 175 0 175 0 0 500 0 500
-168 0 c-93 0 -172 -3 -175 -7z"/>
<path d="M2210 2470 c0 -6 102 -10 285 -10 183 0 285 4 285 10 0 6 -102 10
-285 10 -183 0 -285 -4 -285 -10z"/>
<path d="M2210 2352 c0 -40 5 -73 12 -80 17 -17 529 -17 546 0 7 7 12 40 12
80 l0 68 -285 0 -285 0 0 -68z"/>
<path d="M3522 2383 c48 -2 129 -2 180 0 51 1 12 3 -87 3 -99 0 -141 -2 -93
-3z"/>
<path d="M3444 2346 c-3 -8 -4 -29 -2 -48 l3 -33 170 0 170 0 3 39 c2 24 -2
42 -10 47 -7 5 -84 9 -171 9 -126 0 -159 -3 -163 -14z"/>
<path d="M3027 2068 c-9 -7 -44 -83 -78 -168 -34 -85 -65 -159 -69 -163 -10
-12 -60 32 -91 81 l-28 44 35 33 c29 27 34 39 34 76 -1 76 -34 99 -144 99
l-76 0 0 -175 0 -175 25 0 c24 0 25 2 25 75 0 73 1 75 24 75 19 0 31 -13 58
-62 46 -84 74 -104 129 -92 40 9 44 12 63 66 20 55 22 58 61 64 82 12 95 5
120 -61 18 -49 26 -61 47 -63 25 -3 25 -3 -40 177 -36 100 -68 181 -72 181 -3
0 -14 -6 -23 -12z m-273 -39 c20 -16 26 -29 26 -58 0 -53 -18 -72 -73 -78
l-47 -6 0 82 0 81 34 0 c19 0 45 -9 60 -21z m307 -84 l26 -75 -59 0 c-32 0
-58 2 -58 4 0 14 53 146 59 146 3 0 18 -34 32 -75z"/>
<path d="M1930 1895 l0 -175 90 0 c53 0 90 4 90 10 0 6 -28 10 -65 10 l-65 0
0 165 0 165 -25 0 -25 0 0 -175z"/>
<path d="M2180 1895 l0 -175 25 0 25 0 0 175 0 175 -25 0 -25 0 0 -175z"/>
<path d="M2317 2063 c-4 -3 -7 -82 -7 -173 l0 -167 31 -7 c82 -16 167 3 188
42 20 37 13 91 -14 117 -13 14 -29 25 -36 25 -7 0 0 11 14 24 51 47 41 113
-19 136 -29 11 -147 13 -157 3z m138 -38 c49 -48 21 -105 -51 -105 l-44 0 0
58 c0 32 3 62 7 65 15 16 65 6 88 -18z m15 -155 c25 -25 27 -91 4 -114 -10
-10 -33 -16 -65 -16 l-49 0 0 75 0 75 45 0 c32 0 51 -6 65 -20z"/>
<path d="M3238 2064 c-5 -4 -8 -83 -8 -175 l0 -168 45 -7 c66 -9 133 3 161 31
34 34 33 97 -1 130 -13 14 -30 25 -37 25 -7 0 0 10 15 23 38 30 42 87 9 120
-19 18 -36 22 -100 25 -42 2 -80 0 -84 -4z m137 -39 c49 -48 21 -105 -51 -105
l-44 0 0 58 c0 32 3 62 7 65 15 16 65 6 88 -18z m13 -155 c15 -15 22 -33 22
-60 0 -53 -20 -70 -81 -70 l-49 0 0 75 0 75 43 0 c30 0 50 -6 65 -20z"/>
<path d="M3530 1895 l0 -175 25 0 c24 0 25 2 25 75 0 73 1 75 24 75 20 0 31
-12 57 -61 36 -67 70 -99 105 -99 35 0 36 15 3 39 -17 13 -44 43 -60 69 l-29
46 31 25 c22 19 32 37 36 69 11 84 -25 112 -142 112 l-75 0 0 -175z m144 134
c20 -16 26 -29 26 -60 0 -52 -27 -79 -80 -79 l-40 0 0 80 0 80 34 0 c19 0 45
-9 60 -21z"/>
<path d="M3802 2048 c8 -13 36 -62 61 -109 43 -78 47 -92 47 -153 0 -64 1 -66
25 -66 24 0 25 2 25 67 0 61 5 75 55 175 48 93 53 108 37 108 -14 0 -30 -24
-62 -91 l-43 -91 -18 23 c-9 13 -32 54 -50 91 -29 61 -36 68 -62 68 -28 0 -29
-1 -15 -22z"/>
<path d="M2363 1613 c-4 -11 3 -24 23 -39 30 -24 27 -38 -11 -47 -19 -4 -19
-5 1 -6 12 0 28 6 35 15 12 14 10 19 -14 38 -33 26 -34 43 -4 49 l22 4 -23 2
c-13 0 -25 -6 -29 -16z"/>
<path d="M2589 1606 c-24 -52 15 -101 61 -76 23 12 28 68 8 88 -21 21 -57 14
-69 -12z m66 -25 c0 -41 -25 -62 -49 -42 -33 27 -12 85 29 79 16 -2 20 -11 20
-37z"/>
<path d="M2746 1617 c-40 -30 -10 -102 39 -95 27 4 35 58 8 57 -10 0 -13 -3
-5 -6 19 -8 15 -43 -6 -43 -26 0 -42 20 -42 52 0 22 6 29 33 37 21 6 25 9 11
10 -11 1 -28 -5 -38 -12z"/>
<path d="M2890 1606 c-5 -15 -12 -39 -15 -54 -3 -15 2 -7 11 17 14 37 18 41
26 26 8 -12 6 -20 -3 -26 -11 -7 -11 -9 2 -9 9 0 19 -10 22 -22 4 -12 9 -20
11 -17 6 6 -25 93 -37 105 -3 4 -11 -5 -17 -20z"/>
<path d="M3002 1578 l1 -53 6 45 6 45 18 -33 c10 -19 21 -32 23 -29 7 6 -38
77 -48 77 -5 0 -7 -24 -6 -52z"/>
<path d="M3068 1583 c-3 -27 -1 -52 4 -57 4 -6 8 16 8 47 0 69 -6 74 -12 10z"/>
<path d="M3212 1575 c0 -51 1 -55 8 -27 4 19 4 46 0 60 -6 21 -8 13 -8 -33z"/>
<path d="M3280 1606 c0 -18 -7 -26 -22 -29 -23 -4 -23 -4 -1 -6 16 -1 23 -9
26 -28 2 -16 5 -2 6 30 0 31 -1 57 -4 57 -3 0 -5 -11 -5 -24z"/>
<path d="M3350 1575 l0 -55 33 1 c29 1 30 2 7 8 -21 6 -25 13 -27 48 -1 38 1
42 25 46 24 4 23 4 -5 6 l-33 1 0 -55z"/>
<path d="M3471 1578 c1 -29 4 -43 6 -30 6 31 29 28 41 -5 6 -16 11 -21 11 -13
0 8 -3 22 -9 30 -5 9 -5 19 2 27 16 20 2 43 -27 43 -24 0 -25 -3 -24 -52z m44
22 c0 -8 -8 -16 -17 -18 -13 -2 -18 3 -18 18 0 15 5 20 18 18 9 -2 17 -10 17
-18z"/>
<path d="M3590 1575 c0 -54 1 -55 28 -54 23 2 24 2 5 6 -20 4 -23 11 -23 48 0
37 3 44 23 48 19 4 18 4 -5 6 -27 1 -28 0 -28 -54z"/>
<path d="M2472 1575 c3 -48 4 -50 33 -52 27 -2 28 -1 5 5 -19 6 -25 16 -28 47
-6 58 -14 58 -10 0z"/>
</g>
</svg>
